<svg height="512" width="512" xmlns="http://www.w3.org/2000/svg"><path d="M234 310L90 351.045v-56.217l144-41.045z" fill="#a0c8ff"/><g fill="#a0c8ff"><circle cx="50" cy="462" r="40"/><circle cx="194" cy="420.955" r="40"/></g><g fill="#ff9b9b"><path d="M397.592 96.306L502 66.217V10L397.592 40.089z"/><circle cx="357.592" cy="207.261" r="40"/></g><path d="M392.741 424.508l-47.843 25.153 9.137-53.274-38.706-37.729 53.49-7.773 23.922-48.471 23.922 48.471 53.49 7.773-38.706 37.729 9.138 53.274z" fill="#cbf4fb"/><path d="M75.168 110.322l-39.312 20.667 7.508-43.774L11.56 56.214l43.952-6.387L75.168 10l19.656 39.827 43.952 6.387-31.804 31.001 7.508 43.774z" fill="#ffd88e"/><path d="M234 243.783c-.951 0-1.868.141-2.739.389l-.002-.007-28.722 8.187c-5.311 1.514-8.39 7.047-6.876 12.358 1.253 4.396 5.258 7.261 9.612 7.261.907 0 1.83-.125 2.746-.385L224 267.032v35.42l-124 35.345v-35.42l21.464-6.118c5.311-1.514 8.39-7.047 6.876-12.358s-7.045-8.387-12.358-6.876l-28.723 8.187.001.007c-4.189 1.193-7.26 5.039-7.26 9.61v127.199C71.637 415.735 61.248 412 50 412c-27.57 0-50 22.43-50 50s22.43 50 50 50 50-22.43 50-50V358.594l124-35.345v57.733c-8.363-6.292-18.752-10.027-30-10.027-27.57 0-50 22.43-50 50s22.43 50 50 50 50-22.43 50-50V253.783c0-5.523-4.477-10-10-10zM50 492c-16.542 0-30-13.458-30-30s13.458-30 30-30 30 13.458 30 30-13.458 30-30 30zm144-41.045c-16.542 0-30-13.458-30-30s13.458-30 30-30 30 13.458 30 30-13.458 30-30 30zM508.013 2.01a10.008 10.008 0 00-8.782-1.619L394.823 30.48a10 10 0 00-7.231 9.609v127.199c-8.363-6.292-18.752-10.027-30-10.027-27.57 0-50 22.43-50 50s22.43 50 50 50 50-22.43 50-50v-103.43l97.177-28.005A10 10 0 00512 66.217V10a10 10 0 00-3.987-7.99zM357.592 237.261c-16.542 0-30-13.458-30-30s13.458-30 30-30 30 13.458 30 30-13.458 30-30 30zM492 58.692l-84.408 24.325V47.614L492 23.289zM471.591 348.762l-48.288-7.017-21.595-43.756a10 10 0 00-17.934 0l-21.595 43.756-48.288 7.017a10.001 10.001 0 00-5.542 17.057l34.941 34.06-8.249 48.093a10 10 0 0014.509 10.542l43.19-22.707 43.19 22.706a9.994 9.994 0 0010.531-.761 9.998 9.998 0 003.978-9.781l-8.249-48.093 34.941-34.06a10 10 0 00-5.54-17.056zm-47.124 40.464a9.997 9.997 0 00-2.876 8.851l5.712 33.304-29.909-15.724a9.998 9.998 0 00-9.307 0l-29.909 15.724 5.712-33.304a9.997 9.997 0 00-2.876-8.851l-24.196-23.586 33.439-4.859a9.998 9.998 0 007.529-5.47l14.955-30.301 14.954 30.301a10 10 0 007.529 5.47l33.439 4.859zM32.62 90.706L26 129.299a10 10 0 0014.509 10.542l34.658-18.221 34.659 18.221a9.994 9.994 0 0010.531-.762 9.999 9.999 0 003.978-9.781l-6.62-38.593 28.04-27.331a10 10 0 00-5.542-17.057l-38.75-5.631L84.135 5.574a9.998 9.998 0 00-17.934 0L48.872 40.687l-38.75 5.631A10.001 10.001 0 004.58 63.375zm24.33-30.983a9.998 9.998 0 007.529-5.47l10.688-21.657 10.688 21.657a10 10 0 007.529 5.47l23.9 3.473-17.292 16.858a10 10 0 00-2.876 8.852l4.083 23.804-21.377-11.238a9.994 9.994 0 00-9.306 0L49.139 112.71l4.083-23.804a10 10 0 00-2.876-8.852L33.05 63.196zM234 86.306c-5.523 0-10 4.477-10 10v10c0 5.523 4.477 10 10 10s10-4.477 10-10v-10c0-5.523-4.477-10-10-10zM234 156.306c-5.523 0-10 4.477-10 10v10c0 5.523 4.477 10 10 10s10-4.477 10-10v-10c0-5.523-4.477-10-10-10zM274 126.306h-10c-5.523 0-10 4.477-10 10s4.477 10 10 10h10c5.523 0 10-4.477 10-10s-4.477-10-10-10zM194 146.306h10c5.523 0 10-4.477 10-10s-4.477-10-10-10h-10c-5.523 0-10 4.477-10 10s4.477 10 10 10z"/><path d="M162 284.31c2.63 0 5.21-1.07 7.07-2.93s2.93-4.44 2.93-7.07a10.1 10.1 0 00-2.93-7.08c-1.86-1.86-4.44-2.92-7.07-2.92s-5.21 1.06-7.07 2.92a10.1 10.1 0 00-2.93 7.08c0 2.63 1.07 5.21 2.93 7.07s4.44 2.93 7.07 2.93z"/></svg>